PathFileType	4	(X/Y/Z)	Patient4_TMGait_0pt5_01_right_40.trc.trc
DataRate	CameraRate	NumFrames	NumMarkers	Units	OrigDataRate	OrigDataStartFrame	OrigNumFrames
74.866310160428	74.866310160428	4	33	mm	74.866310160428	124	       141
Frame#	Time	L.ASIS			Sacral			L.Shoulder			Chest			R.Shoulder			Neck			R.ASIS			R.Thigh.Superior			R.Thigh.Lateral			R.Thigh.Inferior			R.Patella			L.Thigh.Superior			L.Thigh.Lateral			L.Thigh.Inferior			L.Patella			L.Shank.Superior			L.Shank.Lateral			L.Shank.Inferior			R.Shank.Superior			R.Shank.Lateral			R.Shank.Inferior			R.Heel			R.Midfoot.Superior			R.Midfoot.Lateral			R.Toe			L.Heel			L.Midfoot.Lateral			L.Midfoot.Superior			L.Toe			L.Elbow			L.Wrist			R.Elbow			R.Wrist			
		X1	Y1	Z1	X2	Y2	Z2	X3	Y3	Z3	X4	Y4	Z4	X5	Y5	Z5	X6	Y6	Z6	X7	Y7	Z7	X8	Y8	Z8	X9	Y9	Z9	X10	Y10	Z10	X11	Y11	Z11	X12	Y12	Z12	X13	Y13	Z13	X14	Y14	Z14	X15	Y15	Z15	X16	Y16	Z16	X17	Y17	Z17	X18	Y18	Z18	X19	Y19	Z19	X20	Y20	Z20	X21	Y21	Z21	X22	Y22	Z22	X23	Y23	Z23	X24	Y24	Z24	X25	Y25	Z25	X26	Y26	Z26	X27	Y27	Z27	X28	Y28	Z28	X29	Y29	Z29	X30	Y30	Z30	X31	Y31	Z31	X32	Y32	Z32	X33	Y33	Z33	

124	54.292928571429	805.981914612858	956.303624165765	304.540242912034	590.489300873449	1002.825124941171	457.752103637069	782.427177260360	1427.359641866903	283.207541664853	874.720944069006	1355.035974098975	449.727841288736	784.158884085425	1431.857121138453	619.339369407911	767.842110729063	1489.283314008455	434.494200687201	813.338630477672	932.748320648159	580.399625041452	878.327599932435	755.679280694257	552.486147147345	826.091747206339	634.464033981737	619.736666875457	913.613821588039	594.717827930576	539.454413782466	940.070049788994	510.005933574772	552.089950350732	810.013053239442	730.131561456070	331.239802152648	692.706537220481	635.898549130802	272.041395642817	753.990828405399	543.030375343309	334.743050357662	737.670363828101	475.206628936964	346.063050627853	705.338692301793	409.117302674612	338.286754461085	602.207165600640	305.301862271368	289.493670925238	640.857236805253	190.047248901259	362.314439294358	922.428165798558	421.069396267791	561.615666562520	865.348081809090	308.117647235570	621.497302533355	931.554650319730	221.470214819210	567.796994461742	832.008930665980	40.535914038837	533.589345388821	993.181087566598	110.348797667148	579.371894855192	912.362396961435	38.001205094766	611.641038108741	1115.948891826647	70.240998769917	612.692877526005	499.634297807287	38.881831710395	407.159390635226	574.073433343377	34.687571525009	327.169392246367	658.277624976709	95.475846543466	352.931781384889	786.204476494699	40.565294981778	326.514982333962	834.122857037112	1097.510764397881	127.157364113792	1077.856028800688	1010.579238378888	93.989226863533	629.052157782956	1124.518173773537	721.827113055670	582.108465903880	867.217562302968	722.262059863460	
125	54.306285714286	807.784124868344	955.393988590285	306.927012449047	592.104714594281	1001.228058815022	460.306498969987	781.224949615159	1426.415029567827	285.833301470155	874.515462261472	1354.750250830841	452.081202314420	783.881562690130	1430.607619109869	622.095860788104	766.862076669411	1488.259112793588	437.309361584688	815.480260194029	931.520950658158	582.574732243551	880.963408191775	754.063079475481	554.257769867218	826.748183852401	632.761595547848	620.344303563813	914.653776579151	593.328889103352	540.572048511680	939.435318177399	507.924215039610	552.349096040233	811.129215314615	728.754410771490	333.288521831058	693.248946473378	634.942380726608	274.051572712786	754.117814976133	541.661004367423	336.698493280195	737.435022043194	473.219488991108	347.855979429463	703.806834212395	407.498044412907	339.882314533295	598.969683798598	305.422865015855	290.712300361348	635.745238906440	189.302922507669	363.009562220732	921.268589752657	418.449410509758	561.811831357915	862.905557914815	306.098440234213	621.460629092494	927.620454349345	218.853312182300	567.356181373664	824.978768435423	40.474720737382	532.904615579151	987.225607139836	107.578211471882	578.635558887237	905.051350362975	37.076023004119	611.292080452050	1109.317328656710	65.316255815735	612.418364669315	492.778170243685	39.027419488466	407.140944374128	567.305679967312	34.641517069269	327.247275973124	651.623469920367	95.379957413684	353.064057576113	779.499126448349	40.420436612152	326.495352942097	830.938026705529	1094.976978658041	131.138196251937	1073.221413980202	1003.622980400582	97.322580375427	633.893192389627	1120.221167207646	724.773781016325	591.329220633298	862.139235653388	724.963354566686	
126	54.319642857143	809.607464097017	954.654410084890	309.399255848272	593.772197828181	999.732695914698	462.962950236758	779.956081741252	1425.715372894282	288.635891554012	874.280719830532	1354.680757375533	454.582402356164	783.523996515180	1429.430250637198	625.044959698971	765.859868336977	1487.419633923772	440.328035937561	817.765673063985	930.537011842583	584.800263480039	884.025119913762	752.839515140551	555.829131987459	828.113704195119	631.482390968903	620.918956832811	916.259051109418	592.326400857439	541.523543449850	939.414404563580	506.112992539046	552.499363215796	812.638534153381	727.563039195706	335.359572283940	694.386190405999	633.933448643198	276.194158545779	755.131897374258	540.291854507166	338.717852911649	738.268215322715	471.073615950085	349.572790596587	703.028806424338	405.798695489024	341.496414381896	596.271532380992	305.748074888515	291.993274289086	630.935939539632	188.670828700585	363.665245768349	920.556899336702	416.134904561488	561.906233947486	860.884010202551	304.519712782188	621.604951963960	923.678306702954	216.506927877962	566.909707690612	817.434686709671	40.645139693491	532.497338550541	980.851621116018	105.093284267495	577.904617948262	897.348872201157	36.434438615353	611.127791298676	1102.309826830735	60.793465379188	612.031019360293	485.947931361405	39.652730193793	407.069629675089	560.558165334551	34.782816879665	327.315699733881	645.132245964426	95.308239313132	353.120755792128	772.789432046989	40.191623539098	326.479705172051	827.209343393101	1092.525199974120	135.370827077388	1067.617327563763	995.905827508485	100.689335053586	639.428103196722	1115.622244125457	727.826233760731	602.015712907122	856.668652332340	727.856093408849	
127	54.333000000000	811.386242224460	954.153363872976	311.940215048446	595.448636737112	998.412805015218	465.714298732764	778.677325365133	1425.317370671923	291.591949746493	874.030127871092	1354.847179641446	457.213526120177	783.125077594084	1428.399027102687	628.152345026404	764.876262853122	1486.827534314741	443.515310533066	820.132850471343	929.867121764001	587.091086205479	887.306719416254	752.009563276498	557.226175151618	830.041485251662	630.643204237958	621.529973993391	918.198388088603	591.665967776385	542.319296424423	939.822345109126	504.604676323088	552.582556983620	814.567943313369	726.649610500198	337.451408421957	696.238401138712	632.894906952586	278.452773090167	757.226206922992	538.976923051371	340.769937828907	740.389911242480	468.812470439100	351.139912777018	703.189460200184	404.059728057735	343.079659120481	594.275929663307	306.375029739704	293.303464893110	626.556286622122	188.250124953675	364.242871018112	920.170156796687	414.182719887148	561.939871523292	859.256844887426	303.374747425770	621.936235832532	919.836266971380	214.504365531735	566.485514849655	809.778402180673	40.939744275149	532.326016185515	974.348487244648	103.004016992820	577.240442131074	889.634469527630	36.044321724093	611.115464577629	1095.239624215699	56.963755105840	611.587540183680	479.209233358327	40.996803147364	406.930613506506	553.866421485757	35.248387413231	327.361550476939	638.892981784331	95.305023557077	353.067666587140	766.071991358957	39.869405332585	326.472546210676	822.974526136054	1090.250769210049	139.852291746335	1060.982571680743	987.488155083416	104.134788116264	645.644355565633	1110.885723929783	730.939193578771	614.117301174579	851.020723278043	730.885755919928	
